<?xml version="1.0" encoding="UTF-8" standalone="no"?>
<!DOCTYPE svg PUBLIC "-//W3C//DTD SVG 1.1//EN"
 "http://www.w3.org/Graphics/SVG/1.1/DTD/svg11.dtd">
<!-- Generated by graphviz version 2.26.3 (20100126.1600)
 -->
<!-- Title: G Pages: 1 -->
<svg width="316pt" height="152pt"
 viewBox="0.00 0.00 316.00 152.00" xmlns="http://www.w3.org/2000/svg" xmlns:xlink="http://www.w3.org/1999/xlink">
<g id="graph1" class="graph" transform="scale(1 1) rotate(0) translate(4 148)">
<title>G</title>
<polygon fill="white" stroke="white" points="-4,5 -4,-148 313,-148 313,5 -4,5"/>
<g id="graph2" class="cluster"><title>cluster_Global</title>
<polyline fill="none" stroke="gray" points="20,-8 288,-8 "/>
<path fill="none" stroke="gray" d="M288,-8C294,-8 300,-14 300,-20"/>
<polyline fill="none" stroke="gray" points="300,-20 300,-124 "/>
<path fill="none" stroke="gray" d="M300,-124C300,-130 294,-136 288,-136"/>
<polyline fill="none" stroke="gray" points="288,-136 20,-136 "/>
<path fill="none" stroke="gray" d="M20,-136C14,-136 8,-130 8,-124"/>
<polyline fill="none" stroke="gray" points="8,-124 8,-20 "/>
<path fill="none" stroke="gray" d="M8,-20C8,-14 14,-8 20,-8"/>
<text text-anchor="middle" x="154" y="-122.1" font-family="Times Roman,serif" font-size="11.00" fill="gray">Global</text>
</g>
<!-- \\EuroSmsBase -->
<g id="node2" class="node"><title>\\EuroSmsBase</title>
<polygon fill="none" stroke="black" points="107,-79 17,-79 17,-43 107,-43 107,-79"/>
<text text-anchor="middle" x="62" y="-58.1" font-family="Courier,monospace" font-size="11.00">EuroSmsBase</text>
</g>
<!-- \\EuroSmsMessage -->
<g id="node3" class="node"><title>\\EuroSmsMessage</title>
<polygon fill="none" stroke="black" points="291,-106 181,-106 181,-70 291,-70 291,-106"/>
<text text-anchor="middle" x="236" y="-85.1" font-family="Courier,monospace" font-size="11.00">EuroSmsMessage</text>
</g>
<!-- \\EuroSmsMessage&#45;&gt;\\EuroSmsBase -->
<g id="edge3" class="edge"><title>\\EuroSmsMessage&#45;&gt;\\EuroSmsBase</title>
<path fill="none" stroke="black" d="M180.467,-79.3828C160.387,-76.267 137.723,-72.7502 117.635,-69.633"/>
<polygon fill="none" stroke="black" points="118.117,-66.166 107.699,-68.0912 117.044,-73.0832 118.117,-66.166"/>
</g>
<!-- \\EuroSms -->
<g id="node4" class="node"><title>\\EuroSms</title>
<polygon fill="none" stroke="black" points="268,-52 204,-52 204,-16 268,-16 268,-52"/>
<text text-anchor="middle" x="236" y="-31.1" font-family="Courier,monospace" font-size="11.00">EuroSms</text>
</g>
<!-- \\EuroSms&#45;&gt;\\EuroSmsBase -->
<g id="edge5" class="edge"><title>\\EuroSms&#45;&gt;\\EuroSmsBase</title>
<path fill="none" stroke="black" d="M203.68,-39.0152C179.609,-42.7504 146.146,-47.9428 117.786,-52.3436"/>
<polygon fill="none" stroke="black" points="116.94,-48.9329 107.595,-53.9249 118.013,-55.8501 116.94,-48.9329"/>
</g>
</g>
</svg>
